<?xml version="1.0" encoding="UTF-8"?>
<svg id="b" data-name="Layer 2" xmlns="http://www.w3.org/2000/svg" viewBox="0 0 222.65515 212.08887">
  <g id="c" data-name="Loghi">
    <g>
      <path d="M20.38969,177.91528l-.37047-.3095c2.14776-2.94028,2.43382-6.94272-.48301-9.38826-1.7773-1.48889-4.30491-1.48889-5.66015.12896-3.60149,4.29553,5.99076,12.56067,1.56862,17.83629-2.31189,2.75739-6.16661,3.31778-9.61335.42909-2.54402-2.1337-2.4643-3.73749-3.843-4.89109-.58384-.49005-1.09733-.1993-1.61786.31185l-.37047-.3095,5.04349-6.0189.37281.31185c-3.02234,4.46435-.83238,8.15259.8652,9.57349,2.12197,1.77964,4.598,2.00239,6.2862-.01172,3.77734-4.50655-5.8829-12.15503-1.19346-17.74719,2.26734-2.70346,6.12441-2.67533,8.93573-.31888,1.98598,1.66709,2.30955,3.65073,3.05283,4.27443.63542.53225,1.17236.21571,1.74447-.25323l.37281.31185-5.09039,6.07048Z"/>
      <path d="M29.54793,189.15845c1.36463-2.48775.74562-4.62613-1.12078-5.68126-1.7773-1.00354-4.40807-.42439-5.80787,1.76558l6.92865,3.91568ZM22.13158,186.03997c-2.5534,4.51828-1.90626,7.94157.83472,9.49143,2.22983,1.25912,4.31663.72921,6.3964-1.19346l.27199.43143c-2.12901,2.57216-5.4843,4.01416-8.37769,2.37989-3.40219-1.92267-4.23925-6.21116-1.95784-10.24643,2.4854-4.39635,6.57929-6.01655,10.25346-3.94147,3.13255,1.77026,3.90396,5.18652,2.0657,8.43865l-9.48674-5.36003Z"/>
      <path d="M44.77736,200.47407c-1.70696,3.05517-4.82778,5.05756-8.16432,3.80079-3.39984-1.28022-4.85357-5.26859-3.05986-10.02837,1.73275-4.60034,5.78208-6.51129,9.53832-5.09508,2.58857.9754,4.15016,3.41157,3.49129,5.16073-.29309.77845-.98713,1.14422-1.86171.81596-.90506-.34233-1.20519-1.12078-.9074-2.30252.43143-1.53814-.16882-2.39396-1.52876-2.90745-2.59091-.9754-5.11853.6237-6.33778,3.86175-1.61082,4.27443-.38922,7.80557,2.29783,8.81849,2.36348.88865,4.52531-.32826,6.15254-2.49009l.37985.36578Z"/>
      <path d="M57.55491,193.85797l-.22509.90741-3.52646-.87927-2.46899,9.9041c-.52756,2.11494-.25792,2.89573.88396,3.17944.77141.19227,1.66006-.22744,2.23921-1.11843l.53694.13599c-1.03871,1.73744-2.60733,2.73629-4.25332,2.32596-1.74681-.43377-2.52761-1.73509-1.88984-4.28615l2.66829-10.71068-2.48306-.61901.12427-.50412c2.58623-.21337,3.96961-1.18643,5.51244-3.94147l.50412.12661-1.14657,4.60034,3.52412.87927Z"/>
      <path d="M64.65262,186.71619c.85348.13365,1.45842.96368,1.32476,1.8195-.13365.85348-.97071,1.49358-1.82419,1.35759-.85582-.13365-1.4889-1.00354-1.3529-1.85936.13365-.85348,1.03168-1.44669,1.85233-1.31773M62.74167,207.53496c-.28606,1.81247.22509,2.34707,2.0657,2.67298l-.07972.51115-7.17719-1.13016.07972-.51115c1.88516.26026,2.50182-.09613,2.78788-1.9086l1.40918-8.95449c.25792-1.6413-.03048-2.03756-.88396-2.17121-.37515-.05862-1.01761.01641-1.34822.10317l-.09613-.50646,4.70116-1.14891.58149.0891-2.03991,12.95458Z"/>
      <path d="M71.019,202.37235c-.25792,4.9075,1.62724,8.57464,4.73868,8.73877,3.1091.16413,4.18767-3.20758,4.32836-5.86884.29543-5.63202-1.80778-8.44803-4.50187-8.58871-2.31658-.12193-4.36587,1.95315-4.56517,5.71877M82.82467,203.89642c-.19461,3.69762-2.52526,8.45975-7.81261,8.18073-3.83596-.20165-6.95678-4.10795-6.727-8.42927.24385-4.62848,3.6179-8.1948,7.69772-7.97908,3.80079.20165,7.07636,3.77031,6.84189,8.22762"/>
      <path d="M89.75989,199.07263c1.74681-2.24155,3.27792-3.60149,5.24514-3.74217,2.20873-.15944,3.76797,1.25443,4.01417,4.67068l.58618,8.14321c.12896,1.79371.64714,2.24155,2.65187,2.13135l.03752.51818-7.28036.52522-.03752-.51818c1.89454-.17116,2.41975-.59087,2.28142-2.48775l-.54164-7.52186c-.20399-2.83008-1.24036-3.72576-2.79256-3.61321-1.51938.10786-3.04579,1.53579-4.09857,2.79256l.63542,8.83256c.13834,1.89688.61666,2.27907,2.61671,2.13604l.03751.51584-7.24519.52522-.03751-.51818c1.89687-.13834,2.4174-.62604,2.28376-2.49009l-.63308-8.76456c-.1313-1.82888-.54397-2.24859-1.47482-2.18294-.37985.02814-.85348.20165-1.18877.36343l-.23916-.43377,4.41979-2.18997.51818-.03752.24151,3.34592Z"/>
      <path d="M107.03274,204.57662c.5088,2.75505,2.38693,4.55579,5.21231,4.03526,2.41507-.4455,3.81251-2.21811,3.42329-4.32601-.35639-1.93908-2.01645-3.49832-6.65665-5.9509-1.42794,1.60144-2.36817,4.1314-1.97895,6.24165M112.58035,190.00653c-.42205-2.27907-2.26266-3.4866-4.6449-3.04814-2.21106.40798-3.60149,2.21342-3.25682,4.0845.47599,2.58388,3.36936,3.775,5.49603,5.00129,1.45138-1.84998,2.86291-3.55225,2.40569-6.03765M102.831,192.47318c-.60259-3.26619,1.74213-5.81022,4.9075-6.39405,3.98134-.7339,6.47612,1.34118,6.92631,3.78907.47598,2.58857-1.9344,4.96612-3.74921,6.56756,2.90745,1.47014,5.98372,2.87228,6.57225,6.07283.64011,3.47019-1.57565,6.34247-5.31782,7.03182-4.2885.79017-6.79031-1.52876-7.31084-4.3518-.51584-2.79022,1.5733-5.39286,3.41391-7.24519-2.47134-1.37401-4.89577-2.50885-5.44209-5.47023"/>
      <path d="M122.92431,196.04184c2.02583,6.9052,4.6613,9.12565,7.01775,8.43396,2.42444-.71045,3.2873-4.28146.72451-13.0132-1.9086-6.5066-4.54172-9.08814-6.99665-8.36596-2.59091.75969-3.20992,4.54641-.74561,12.9452M133.64437,191.77914c2.07507,7.07168.27433,12.35902-3.47722,13.46104-3.78437,1.10905-8.02832-2.0446-10.16202-9.31323-2.10321-7.1725-.51115-12.43405,3.43971-13.59469,3.75155-1.09967,8.04708,2.11025,10.19953,9.44688"/>
      <path d="M145.02986,198.07378c1.23567-.1782,2.94966-.74093,4.19705-1.25911,2.7785-1.15595,5.37409-3.92272,4.09856-6.98727-1.51468-3.64135-5.70001-3.43736-8.95917-2.08211-.89334.37047-2.25327.9754-3.03172,1.44904l3.69528,8.87946ZM140.8422,188.01258c1.03871-.20868,2.45727-.75969,4.02354-1.41152,3.48191-1.44669,4.59565-4.0845,3.57101-6.54411-1.26146-3.03407-4.43621-3.54991-8.04473-2.04929-.89568.37281-2.26031,1.05512-3.02938,1.63661l3.47957,8.36831ZM135.88076,183.10743c-1.15595-2.77849-2.01177-2.94731-4.34477-1.9766l-.1993-.47832,9.679-4.02588c5.23811-2.18059,8.88884-1.15126,10.3496,2.36348.97072,2.33065-.14538,4.78088-1.96957,6.25102l.0258.06331c2.65657-.72921,5.77271.18523,6.88879,2.86759,1.40683,3.38578-.17586,6.96616-5.47726,9.17255l-10.70131,4.45028-.1993-.47832c2.58857-1.07623,2.75036-1.85467,1.55455-4.7293l-5.60622-13.4798Z"/>
      <path d="M165.22142,180.21193c-3.00827,3.3295-4.00244,5.58513-3.04344,7.38587.84644,1.58972,2.3283,1.93674,3.45846,1.33415.94492-.50412,1.42091-1.22863,2.43382-3.3764l-2.84884-5.34362ZM169.93432,184.05258c.87927,1.64834,1.25443,1.76323,1.74212,1.50297.64246-.34233.87927-1.29194,1.06217-2.05632l.38922.7339c-.16413,1.38104-.89099,3.17944-1.80777,3.66714-.9168.49005-1.99771.00703-2.76208-1.42794-1.04574,2.59795-1.69523,3.80548-3.19116,4.60269-1.89453,1.01058-3.85942.41033-4.99895-1.72571-1.35055-2.53464.32592-5.27093,4.42918-9.92989-1.21925-2.29079-2.45257-4.37759-4.92391-3.05986-1.40449.74797-1.85233,1.96722-1.2169,3.15834.84644,1.58738.64715,2.32127-.1149,2.72691-.70341.37515-1.39277.03752-1.76791-.6659-.89335-1.67882-.05393-4.51828,3.12083-6.21116,2.71752-1.44904,4.97784-.81127,6.26274,1.60145l3.77734,7.0834Z"/>
      <path d="M173.32197,171.40376s-.07268-3.83362,1.92033-5.08101c.93789-.58852,1.92267-.38688,2.43617.43377.38688.61666.22509,1.53345-.59557,2.04694-.85113.53225-1.61316.03048-2.25796.43377-.76437.47832-.73623,2.86994-.65183,3.59211l4.29787,6.863c1.02934,1.64131,1.58269,1.74447,3.70232.49943l.27432.43846-6.45032,4.0423-.27667-.44081c1.57565-1.0692,1.76791-1.67882.79485-3.23103l-4.62848-7.3929c-1.02934-1.64131-1.62021-1.80074-2.35409-1.34118-.32123.20165-.66825.6237-.88866.92382l-.415-.27199,2.87931-4.00713.46894-.29309,1.74448,2.78553Z"/>
      <path d="M77.68294,2.50885c-4.65192,1.68351-9.29682,4.18768-13.83151,7.37884l7.46793,63.85845L77.68294,2.50885Z"/>
      <path d="M103.13323,2.50885c-3.62259-1.62724-7.65082-2.50885-12.05186-2.50885l-19.76131,73.74614L103.13323,2.50885Z"/>
      <path d="M50.5292,21.59981c-4.24394,4.54172-8.24404,9.68369-11.9018,15.2782l32.69243,36.86838-20.79063-52.14658Z"/>
      <path d="M120.05625,21.59981c-1.81012-4.54172-4.18298-8.47382-7.04589-11.71188l-41.68913,63.85846,48.73501-52.14658Z"/>
      <path d="M113.69714,92.83288c2.71753-6.08924,5.0177-12.48564,6.78797-19.08837h-49.1641l42.37613,19.08837Z"/>
      <path d="M123.92598,54.65779c.56508-6.30262.49473-12.2629-.15476-17.78001l-52.45139,36.86838,52.60615-19.08837Z"/>
      <path d="M64.95766,144.98157c4.65192-1.68351,9.29682-4.18767,13.83151-7.37883l-7.46793-63.85846-6.36357,71.23729Z"/>
      <path d="M28.94417,54.65779c-2.71753,6.08924-5.0177,12.48564-6.78797,19.08837h49.1641l-42.37613-19.08837Z"/>
      <path d="M92.1114,125.89063c4.24395-4.54172,8.24403-9.68135,11.9018-15.2782l-32.69244-36.86839,20.79064,52.14658Z"/>
      <path d="M39.5076,144.98157c3.62259,1.62724,7.65082,2.50885,12.0542,2.50885l19.75896-73.74614-31.81317,71.23729Z"/>
      <path d="M18.71462,92.83288c-.56508,6.30026-.49474,12.26289.15475,17.78001l52.45139-36.86838-52.60615,19.08837Z"/>
      <path d="M22.58435,125.89063c1.81012,4.54172,4.18533,8.47382,7.04823,11.71188l41.68679-63.85846-48.73501,52.14658Z"/>
      <path d="M176.03012,2.50885c-4.65193,1.68351-9.29681,4.18768-13.82917,7.37884l7.46795,63.85845,6.36122-71.23729Z"/>
      <path d="M201.48089,2.50885c-3.62493-1.62724-7.65082-2.50885-12.0542-2.50885l-19.75896,73.74614L201.48089,2.50885Z"/>
      <path d="M148.87638,21.59981c-4.24395,4.54172-8.24403,9.68369-11.9018,15.2782l32.69243,36.86838-20.79063-52.14658Z"/>
      <path d="M218.40414,21.59981c-1.81013-4.54172-4.18533-8.47382-7.04822-11.71188l-41.68678,63.85846,48.735-52.14658Z"/>
      <path d="M212.04431,92.83288c2.71752-6.08924,5.0177-12.48564,6.78796-19.08837h-49.16408l42.37613,19.08837Z"/>
      <path d="M222.27316,54.65779c.56507-6.30262.49473-12.2629-.15476-17.78001l-52.45138,36.86838,52.60614-19.08837Z"/>
      <path d="M163.30532,144.98157c4.65193-1.68351,9.29681-4.18767,13.83151-7.37883l-7.46795-63.85846-6.36356,71.23729Z"/>
      <path d="M127.29135,54.65779c-2.71753,6.08924-5.0177,12.48564-6.78797,19.08837h49.1641l-42.37614-19.08837Z"/>
      <path d="M190.45906,125.89063c4.24394-4.54172,8.24403-9.68135,11.90181-15.2782l-32.69244-36.86839,20.79063,52.14658Z"/>
      <path d="M137.85526,144.98157c3.62259,1.62724,7.65082,2.50885,12.05186,2.50885l19.7613-73.74614-31.81316,71.23729Z"/>
      <path d="M117.06251,92.83288c-.56508,6.30026-.49473,12.26289.15476,17.78001l52.4514-36.86838-52.60616,19.08837Z"/>
      <path d="M120.93223,125.89063c1.81012,4.54172,4.18298,8.47382,7.04589,11.71188l41.68912-63.85846-48.735,52.14658Z"/>
    </g>
  </g>
</svg>