<?xml version="1.0" encoding="UTF-8"?>
<svg id="b" data-name="Layer 2" xmlns="http://www.w3.org/2000/svg" viewBox="0 0 192.41408 217.95224">
  <g id="c" data-name="Loghi">
    <path d="M156.99239,79.6947h-11.20776v11.20777h-2.93559v-11.20777h-11.20776v-2.93559h11.20776v-11.20776h2.93559v11.20776h11.20776v2.93559ZM144.31683,0c-26.56334,0-48.09959,35.02308-48.09959,78.2269,0,43.20617,21.53625,78.22925,48.09959,78.22925s48.09725-35.02308,48.09725-78.22925C192.41408,35.02308,170.88018,0,144.31683,0M60.77281,79.6947h-11.21011v11.20777h-2.93324v-11.20777h-11.20776v-2.93559h11.20776v-11.20776h2.93324v11.20776h11.21011v2.93559ZM48.09725,0C21.53391,0,0,35.02308,0,78.2269c0,43.20617,21.53391,78.22925,48.09725,78.22925s48.0996-35.02308,48.0996-78.22925C96.19685,35.02308,74.66059,0,48.09725,0M51.68373,182.88912l-.40329-.2673c-.51818.52991-1.01526.9074-1.7093.44784-.80658-.5346-1.35056-2.46899-3.51708-3.90161-3.05751-2.02115-6.89582-1.61317-8.84194,1.32946-4.02588,6.08924,6.4386,12.59584,3.19586,17.50099-1.44904,2.19466-3.93444,2.25093-6.24399.72452-1.84764-1.2216-4.4409-4.63786-1.94612-9.4164l-.40329-.2673-4.33304,6.55115.40564.2673c.45722-.56742.93554-.91444,1.57096-.49473,1.50062.99182,1.60379,2.5956,4.3729,4.42683,3.7539,2.48071,7.52186,1.48655,9.5055-1.51469,3.7961-5.74456-6.67073-12.87017-3.58039-17.54789,1.16533-1.76088,3.67652-2.04694,5.61092-.76907,3.17475,2.09852,3.34357,6.11034,1.54282,9.27337l.40329.2673,4.37056-6.60977ZM57.47801,199.79737c1.12546-2.60498.30716-4.67537-1.65068-5.54995-1.86405-.83238-4.42918-.00703-5.61326,2.30486l7.26394,3.24509ZM49.80139,197.39169c-2.11494,4.73868-1.14891,8.08928,1.72571,9.37185,2.33769,1.0434,4.36587.31888,6.25571-1.79137l.31185.40329c-1.87578,2.76208-5.08336,4.51359-8.11508,3.15834-3.57101-1.59206-4.80667-5.78208-2.91683-10.0143,2.05866-4.61206,5.98373-6.61211,9.8361-4.89109,3.28495,1.46779,4.37525,4.79495,2.85352,8.20652l-9.95099-4.44325ZM73.20311,209.34695c-1.42559,2.29783-3.46784,3.707-5.90401,3.03407-2.76911-.76672-4.30256-4.17126-3.08096-8.57464.92147-3.33654,3.29433-5.15604,5.96262-4.41745,1.3998.38922,2.07743,1.18643,1.78434,2.75739-.18758,1.20519.17819,1.95315,1.1114,2.21107.90037.25088,1.55924-.1782,1.77964-.98009.49942-1.7984-1.27319-4.0845-3.94147-4.82543-3.86879-1.07154-7.7282,1.19815-9.04124,5.93449-1.35759,4.90281.45253,8.74346,3.9532,9.71183,3.43502.95196,6.36357-1.32477,7.78682-4.52062l-.41032-.33061ZM82.11235,201.3341l.69404-4.6871-.5135-.07738c-1.26614,2.89104-2.54871,3.9954-5.10211,4.45497l-.07503.51349,2.5323.3775-1.62021,10.91702c-.38687,2.60264.51818,3.81955,2.29783,4.0845,1.67647.24854,3.14192-.89803,4.00713-2.72925l-.54632-.07972c-.49005.94023-1.33415,1.44669-2.12197,1.32711-1.16533-.17116-1.50766-.92147-1.18643-3.07862l1.49828-10.09637,3.59212.53225.13833-.92382-3.59446-.5346ZM91.94446,194.00075c.8652.03986,1.55689.79955,1.51703,1.66475-.03986.86286-.80189,1.59207-1.66709,1.54986-.86521-.03986-1.58972-.83472-1.54752-1.69992.03986-.86521.86754-1.55221,1.69758-1.51469M92.32196,214.90862c-.08441,1.83123.48302,2.30955,2.34706,2.42913l-.02344.51818-7.2616-.33764.02579-.51818c1.90391.05393,2.47602-.36812,2.56278-2.20169l.4197-9.05531c.07738-1.66006-.25088-2.02115-1.11608-2.06101-.37984-.01876-1.01057.12427-1.32712.24854l-.15006-.49239,4.54407-1.65772.58852.02579-.60962,13.1023ZM100.07876,208.83838c.38922,4.89812,2.74098,8.28624,5.84539,8.04005,3.10207-.2462,3.72811-3.73279,3.51708-6.38702-.44549-5.62498-2.90276-8.13618-5.59215-7.92281-2.30955.18523-4.07043,2.5112-3.77031,6.26978M111.98056,208.79617c.29309,3.69059-1.39042,8.71767-6.66839,9.13738-3.82893.30481-7.4351-3.15834-7.77743-7.47028-.36812-4.62144,2.50885-8.59809,6.58163-8.92166,3.79141-.30247,7.51014,2.80429,7.86419,7.25457M117.43767,199.6044l-.50412.12896-3.95789,2.94497.31419.38453c.30012-.2204.7339-.47363,1.10436-.56977.90271-.23213,1.38573.10786,1.84061,1.88515l2.18762,8.51134c.46426,1.81012.03987,2.38458-1.80309,2.85821l.12896.50177,7.03886-1.80778-.1313-.50411c-1.94144.49943-2.48072.21102-2.95435-1.63193l-2.20638-8.57933c.81362-1.42325,2.061-3.10206,3.53818-3.48191,1.50766-.38688,2.68705.3095,3.39281,3.05752l1.87578,7.30615c.47363,1.84295.03283,2.34941-1.80075,2.85821l.12662.50177,7.07167-1.81716-.12896-.50177c-1.95081.46425-2.54168.11724-2.98951-1.62724l-2.03053-7.90874c-.85348-3.31778-2.64015-4.42918-4.78558-3.87817-1.9086.49005-3.17475,2.10087-4.49249,4.6191l-.83472-3.24978ZM136.65992,204.76185c1.14657,2.55809,3.3975,3.86175,6.0189,2.68939,2.24156-1.00354,3.18178-3.05517,2.30486-5.01301-.80659-1.80075-2.78788-2.92152-7.87357-4.20877-1.01057,1.89453-1.32711,4.57455-.45019,6.53239M138.60604,189.29607c-.94961-2.11494-3.02235-2.85352-5.23341-1.86405-2.05398.91913-2.9778,3.00124-2.19936,4.73868,1.07388,2.39865,4.16657,2.87228,6.52302,3.55929.97306-2.14073,1.94143-4.12905.90975-6.43391M129.71721,193.99723c-1.35759-3.03172.31889-6.05641,3.25682-7.3718,3.69294-1.65537,6.60742-.22978,7.62503,2.0446,1.07388,2.39865-.70576,5.28031-2.09149,7.26629,3.17475.73859,6.49253,1.37635,7.82198,4.34477,1.44201,3.2193-.03048,6.53473-3.50301,8.08928-3.97899,1.78199-6.95913.12193-8.13383-2.49947-1.1583-2.58857.25557-5.61092,1.60613-7.84543-2.72691-.75031-5.353-1.28022-6.58163-4.02823M150.19763,192.32076c4.01884,5.96966,7.20063,7.28739,9.2382,5.91807,2.09383-1.41152,1.83825-5.07632-3.24276-12.62397-3.78672-5.62499-7.07637-7.28739-9.20068-5.85946-2.23687,1.50765-1.68351,5.3061,3.20523,12.56535M159.12633,185.01696c4.11498,6.11269,3.99775,11.69781.755,13.88074-3.27322,2.20169-8.26983.48067-12.50205-5.80553-4.1736-6.19944-4.24394-11.69781-.83002-13.99564,3.24275-2.18293,8.30734-.42205,12.57708,5.92042"/>
  </g>
</svg>